<svg width="192.75599999999997" height="192.75599999999997" xmlns="http://www.w3.org/2000/svg">

 <g>
  <title>Layer 1</title>
  <path id="svg_3" fill="#fff" d="m55.1,90.489c-1.076,5.812 -2.368,11.839 -4.305,21.31c-1.507,8.395 -4.521,14.637 -9.041,18.512c-3.659,3.443 -6.888,4.305 -7.964,4.305c-1.292,0 -3.013,-0.646 -3.013,-1.938c0,-1.721 0.861,-3.014 1.291,-3.443c0.646,-0.646 1.292,-0.861 2.368,-0.646c0.861,0.432 2.583,1.076 3.444,1.076c2.153,0 2.798,-2.582 4.305,-9.039c1.076,-5.168 2.583,-13.562 4.951,-26.692c0.43,-3.229 0.646,-4.09 0,-4.09s-3.875,1.722 -5.812,3.444l-1.077,-1.937c4.736,-4.09 10.333,-7.534 12.916,-7.534s2.583,2.797 1.937,6.672zm-2.368,-15.499c-2.583,0 -3.875,-1.292 -4.089,-3.659c0,-2.152 1.722,-4.951 5.166,-4.951c2.583,0 3.875,1.937 3.875,3.659c-0.001,2.584 -2.153,4.951 -4.952,4.951zm30.566,37.67c-3.014,2.797 -8.18,4.951 -11.839,4.951c-7.964,0 -10.332,-6.027 -10.332,-11.41c0,-9.9 5.381,-16.574 10.547,-19.587c3.229,-1.937 6.673,-2.798 9.256,-2.798c6.458,0 10.333,4.52 10.333,10.547c0,6.672 -3.013,13.776 -7.965,18.297zm34.011,1.076c-4.52,3.014 -8.609,3.875 -11.623,3.875c-3.875,0 -7.318,-1.293 -8.18,-4.09c-0.647,-1.723 -0.432,-3.23 0.645,-7.75l6.674,-33.364c0.645,-2.798 0.43,-3.229 -2.152,-3.229l-3.445,0l0,-1.722c6.027,-1.292 12.701,-3.229 13.346,-3.229c0.861,0 1.076,1.292 0.646,3.444l-5.812,25.831l0.215,0c6.244,-6.673 12.486,-9.687 15.715,-9.687c3.014,0 4.951,2.583 4.951,6.888c-0.002,8.611 -4.523,18.512 -10.98,23.033z"/>
  <path id="svg_4" fill="#191919" d="m167.053,78.219l-0.861,4.305c-1.506,-3.444 -4.305,-5.166 -8.18,-5.166c-7.533,0 -13.775,7.104 -13.775,15.714c0,7.319 4.52,12.7 10.977,12.7c3.875,0 7.535,-1.938 9.688,-5.381c0.43,3.014 2.799,4.951 5.811,4.951c6.889,0 12.916,-8.611 12.916,-18.513c0,-13.345 -10.547,-23.247 -25.184,-23.247c-14.854,0 -27.123,12.27 -27.123,27.122c0,15.929 11.623,27.123 27.982,27.123c6.459,0 12.055,-1.076 17.221,-3.229l-1.291,-4.521c-4.951,2.152 -10.117,3.229 -15.93,3.229c-13.775,0 -23.031,-9.039 -23.031,-22.601c0,-12.484 10.117,-22.602 22.387,-22.602s20.664,7.75 20.664,18.942c0,7.104 -4.09,14.208 -8.18,14.208c-1.508,0 -2.584,-1.508 -2.584,-3.23c0,-0.859 0,-2.152 0.432,-3.873l3.014,-15.929l-4.953,0l0,-0.002zm-8.61,4.305c3.658,0 6.242,2.799 6.242,6.889c0,6.457 -3.66,11.193 -8.18,11.193c-4.09,0 -6.674,-3.014 -6.674,-7.534c0.001,-5.812 4.091,-10.548 8.612,-10.548zm-80.72,4.52c-0.861,0 -1.507,0 -2.153,0.431c-2.368,0.861 -7.103,6.458 -7.103,17.65c0,5.812 1.937,9.256 5.381,9.256c0.646,0 1.076,0 1.722,-0.215c2.799,-1.076 7.104,-9.256 7.104,-19.156c-0.001,-5.383 -1.938,-7.966 -4.951,-7.966zm39.607,1.723c-2.154,0 -6.244,3.229 -8.826,6.458c-2.584,3.229 -3.014,4.305 -3.875,10.762c-1.076,6.459 0.646,8.395 3.445,8.395c1.721,0 2.582,-0.43 3.658,-1.076c3.66,-1.936 7.965,-11.408 7.965,-19.587c0,-3.661 -0.861,-4.952 -2.367,-4.952z"/>
  <path id="svg_5" fill="#191919" d="m159.068,63.582c1.506,0 2.797,0 3.873,0.215c-11.623,-18.727 -49.293,-24.108 -88.899,-11.193c-43.05,13.991 -71.895,44.126 -64.36,67.16c7.534,23.031 48.432,30.35 91.482,16.359c17.006,-5.383 31.643,-13.562 42.836,-22.602c-7.533,-4.736 -12.055,-12.701 -12.055,-22.818c0,-14.851 12.27,-27.121 27.123,-27.121zm-103.968,26.907c-1.076,5.812 -2.368,11.839 -4.305,21.31c-1.507,8.395 -4.521,14.637 -9.041,18.512c-3.659,3.443 -6.888,4.305 -7.964,4.305c-1.292,0 -3.013,-0.646 -3.013,-1.938c0,-1.721 0.861,-3.014 1.291,-3.443c0.646,-0.646 1.292,-0.861 2.368,-0.646c0.861,0.432 2.583,1.076 3.444,1.076c2.153,0 2.798,-2.582 4.305,-9.039c1.076,-5.168 2.583,-13.562 4.951,-26.692c0.43,-3.229 0.646,-4.09 0,-4.09s-3.875,1.722 -5.812,3.444l-1.077,-1.937c4.736,-4.09 10.333,-7.534 12.916,-7.534s2.583,2.797 1.937,6.672zm-2.368,-15.499c-2.583,0 -3.875,-1.292 -4.089,-3.659c0,-2.152 1.722,-4.951 5.166,-4.951c2.583,0 3.875,1.937 3.875,3.659c-0.001,2.584 -2.153,4.951 -4.952,4.951zm30.566,37.67c-3.014,2.797 -8.18,4.951 -11.839,4.951c-7.964,0 -10.332,-6.027 -10.332,-11.41c0,-9.9 5.381,-16.574 10.547,-19.587c3.229,-1.937 6.673,-2.798 9.256,-2.798c6.458,0 10.333,4.52 10.333,10.547c0,6.672 -3.013,13.776 -7.965,18.297zm34.011,1.076c-4.52,3.014 -8.609,3.875 -11.623,3.875c-3.875,0 -7.318,-1.293 -8.18,-4.09c-0.647,-1.723 -0.432,-3.23 0.645,-7.75l6.674,-33.364c0.645,-2.798 0.43,-3.229 -2.152,-3.229l-3.445,0l0,-1.722c6.027,-1.292 12.701,-3.229 13.346,-3.229c0.861,0 1.076,1.292 0.646,3.444l-5.812,25.831l0.215,0c6.244,-6.673 12.486,-9.687 15.715,-9.687c3.014,0 4.951,2.583 4.951,6.888c-0.002,8.611 -4.523,18.512 -10.98,23.033z"/>
 </g>
</svg>